<svg id="Layer_1" data-name="Layer 1" xmlns="http://www.w3.org/2000/svg" viewBox="0 0 285.07 285.07"><defs><style>.cls-1{fill:#414042;}</style></defs><path class="cls-1" d="M142.54,13.54a129,129,0,1,0,129,129A129.15,129.15,0,0,0,142.54,13.54Zm0,240a111,111,0,1,1,111-111A111.13,111.13,0,0,1,142.54,253.54Z"/><path class="cls-1" d="M187,154.82c-9.18-5.65-21.43-8.92-36.47-9.76a37.11,37.11,0,1,0-16,0c-15,.84-27.3,4.11-36.48,9.76-13.57,8.36-20.75,22.06-20.75,39.61a9,9,0,0,0,18,0c0-8.64,0-31.6,47.23-31.6,12.91,0,47.22,0,47.22,31.6a9,9,0,0,0,18,0C207.76,176.88,200.59,163.18,187,154.82Zm-63.58-46a19.11,19.11,0,1,1,19.11,19.11A19.14,19.14,0,0,1,123.43,108.83Z"/></svg>